<svg xmlns="http://www.w3.org/2000/svg" xmlns:xlink="http://www.w3.org/1999/xlink" preserveAspectRatio="xMidYMid" width="15.37" height="15.37" viewBox="0 0 15.37 15.37">
  <defs>
    <style>
      .cls-1 {
        fill: #0f0d1b;
        fill-rule: evenodd;
      }
    </style>
  </defs>
  <path d="M15.368,13.247 L13.247,15.368 L9.869,11.990 C7.364,13.535 4.044,13.236 1.872,11.065 C-0.666,8.527 -0.666,4.411 1.872,1.872 C4.411,-0.666 8.527,-0.666 11.065,1.872 C13.237,4.044 13.535,7.364 11.990,9.869 L15.368,13.247 ZM9.651,3.287 C7.893,1.530 5.044,1.530 3.287,3.287 C1.529,5.044 1.529,7.893 3.287,9.651 C5.044,11.408 7.893,11.408 9.651,9.651 C11.408,7.893 11.408,5.044 9.651,3.287 Z" class="cls-1"/>
</svg>
