<svg xmlns="http://www.w3.org/2000/svg" xmlns:xlink="http://www.w3.org/1999/xlink" preserveAspectRatio="xMidYMid" width="111" height="14" viewBox="0 0 111 14">
  <defs>
    <style>
      .cls-1 {
        fill: #c5a185;
        fill-rule: evenodd;
      }
    </style>
  </defs>
  <g>
    <path d="M13.777,7.731 C14.307,8.247 14.868,8.732 15.344,9.300 C15.555,9.552 15.754,9.813 15.906,10.105 C16.122,10.522 15.926,10.980 15.551,11.005 L13.219,11.004 C12.618,11.054 12.138,10.813 11.734,10.404 C11.411,10.076 11.112,9.728 10.802,9.389 C10.675,9.251 10.542,9.121 10.382,9.019 C10.064,8.812 9.788,8.876 9.606,9.206 C9.420,9.542 9.378,9.914 9.360,10.289 C9.335,10.835 9.169,10.979 8.617,11.004 C7.439,11.059 6.319,10.881 5.280,10.290 C4.364,9.768 3.653,9.032 3.035,8.198 C1.831,6.574 0.908,4.791 0.080,2.957 C-0.107,2.544 0.029,2.322 0.488,2.313 C1.249,2.299 2.009,2.300 2.772,2.312 C3.080,2.317 3.285,2.493 3.405,2.784 C3.816,3.791 4.319,4.749 4.952,5.638 C5.120,5.874 5.292,6.111 5.537,6.277 C5.807,6.461 6.013,6.400 6.140,6.101 C6.221,5.910 6.256,5.706 6.274,5.502 C6.334,4.802 6.342,4.103 6.236,3.404 C6.172,2.969 5.926,2.687 5.489,2.605 C5.265,2.563 5.299,2.480 5.407,2.353 C5.594,2.135 5.771,1.999 6.122,1.999 L8.758,1.999 C9.173,2.081 9.265,2.266 9.322,2.682 L9.324,5.595 C9.319,5.756 9.405,6.232 9.695,6.340 C9.929,6.415 10.082,6.229 10.222,6.083 C10.853,5.417 11.303,4.629 11.706,3.813 C11.885,3.454 12.038,3.082 12.187,2.710 C12.297,2.434 12.470,2.298 12.782,2.304 L15.319,2.306 C15.394,2.306 15.470,2.307 15.543,2.319 C15.971,2.392 16.088,2.575 15.956,2.991 C15.748,3.642 15.343,4.185 14.947,4.731 C14.524,5.313 14.072,5.876 13.652,6.461 C13.267,6.996 13.297,7.267 13.777,7.731 L13.777,7.731 Z" class="cls-1"/>
    <path d="M58.759,6.999 L56.954,6.999 L56.954,13.991 L54.279,13.991 L54.279,6.999 L53.007,6.999 L53.007,4.528 L54.279,4.528 L54.279,2.930 C54.279,1.787 54.779,-0.002 56.978,-0.002 L58.960,0.007 L58.960,2.404 L57.522,2.404 C57.286,2.404 56.954,2.532 56.954,3.077 L56.954,4.531 L58.992,4.531 L58.759,6.999 Z" class="cls-1"/>
    <path d="M110.958,9.886 C110.924,10.631 110.805,11.140 110.632,11.585 C110.453,12.046 110.214,12.436 109.825,12.825 C109.436,13.214 109.045,13.453 108.585,13.633 C108.140,13.806 107.631,13.924 106.886,13.958 C106.139,13.992 105.901,14.000 104.000,14.000 C102.099,14.000 101.861,13.992 101.114,13.958 C100.369,13.924 99.860,13.806 99.415,13.633 C98.954,13.453 98.564,13.214 98.175,12.825 C97.786,12.436 97.546,12.046 97.368,11.585 C97.195,11.140 97.076,10.631 97.042,9.886 C97.008,9.140 97.000,8.901 97.000,7.000 C97.000,5.099 97.008,4.861 97.042,4.114 C97.076,3.369 97.195,2.860 97.368,2.415 C97.546,1.954 97.786,1.564 98.175,1.175 C98.564,0.786 98.954,0.546 99.415,0.367 C99.860,0.195 100.369,0.076 101.114,0.042 C101.861,0.008 102.099,0.000 104.000,0.000 C105.901,0.000 106.139,0.008 106.886,0.042 C107.631,0.076 108.140,0.195 108.585,0.367 C109.045,0.546 109.436,0.786 109.825,1.175 C110.214,1.564 110.453,1.954 110.632,2.415 C110.805,2.860 110.924,3.369 110.958,4.114 C110.992,4.861 111.000,5.099 111.000,7.000 C111.000,8.901 110.992,9.140 110.958,9.886 ZM104.000,3.405 C102.015,3.405 100.405,5.015 100.405,7.000 C100.405,8.985 102.015,10.595 104.000,10.595 C105.985,10.595 107.594,8.985 107.594,7.000 C107.594,5.015 105.985,3.405 104.000,3.405 ZM107.736,2.423 C107.273,2.423 106.896,2.800 106.896,3.263 C106.896,3.728 107.273,4.103 107.736,4.103 C108.201,4.103 108.577,3.728 108.577,3.263 C108.577,2.800 108.201,2.423 107.736,2.423 ZM104.000,9.333 C102.711,9.333 101.667,8.289 101.667,7.000 C101.667,5.711 102.711,4.667 104.000,4.667 C105.289,4.667 106.333,5.711 106.333,7.000 C106.333,8.289 105.289,9.333 104.000,9.333 Z" class="cls-1"/>
  </g>
</svg>
